# xmcd
#
# Track frame offsets:
#	225
#	14383
#	27485
#	41269
#	51257
#	72084
#	99738
#	110970
#	139510
#	156677
#	170056
#	183951
#	200784
#	210475
#	228321
#	242772
#	254787
#	266486
#	283299
#	294846
#
# Disc length: 4152 seconds
#
# Revision: 1
# Processed by: cddbd v1.5.2PL0 Copyright (c) Steve Scherf et al.
# Submitted via: audiograbber 1.83.01
#
DISCID=3a103514
DTITLE=Black Bottom Skiffle Group - Black Bottom Skiffle Group
DYEAR=1900
DGENRE=Easy Listening
TTITLE0=Host Denn Du Mein' Briaf Ned G'riagt
TTITLE1=I Und Der Niedermeier (Ring Of Fire)
TTITLE2=In Der Börban Street (Bourbon Street Parade)
TTITLE3=Let Me Go
TTITLE4=Wenn I Di Man Brauch' (If I Needed You)
TTITLE5=Medley: When The Saints - Down By The Riverside - I Scream - Margie
TTITLE6=Heid Hod Er Wieder Vui G'arbat (Pa Went To Sleep And The Hogs Eat Him)
TTITLE7=Medley: Kansas City - Oh Boy - Sea Cruise
TTITLE8=Nochmal Nach Schwabing Geh'n (On The Road Again)
TTITLE9=Jack O'diamond
TTITLE10=A Wanderin' Star
TTITLE11=Medley: Bei Mir Biste Scheen - Am Sonntag Will Mein Süßer Mit Mir Sege
TTITLE11=ln Geh'n
TTITLE12=Take A Little Wine
TTITLE13=Sonntag Friah Um Halbe Achte (Sunday Mornin' Coming Down)
TTITLE14=Polka Auf Am Banjo (Polka On A Banjo)
TTITLE15=Schöne Frau'n
TTITLE16=Last Night We Had A Party
TTITLE17=Medley: Duelling Banjos - So A Feine Bande
TTITLE18=Mia Sog'n Dank'schön (Pettycoat Junction)
TTITLE19=Wos Gibt's Denn Heid Auf D' Nacht
EXTD=
EXTT0=
EXTT1=
EXTT2=
EXTT3=
EXTT4=
EXTT5=
EXTT6=
EXTT7=
EXTT8=
EXTT9=
EXTT10=
EXTT11=
EXTT12=
EXTT13=
EXTT14=
EXTT15=
EXTT16=
EXTT17=
EXTT18=
EXTT19=
PLAYORDER=
